<svg width="64" height="56" viewBox="0 0 64 56" fill="none" xmlns="http://www.w3.org/2000/svg">
<path d="M29.4865 21.8125L25.5766 15.0625L16.6396 28L24.4595 42.0625L54.0631 42.0625L63 28L47.3604 1H38.4234L54.0631 28L50.7117 33.625L29.4865 33.625L25.5766 28L29.4865 21.8125Z" fill="url(#paint0_linear_303_9609)"/>
<path d="M39.5405 29.125L28.3694 10H21.6667L10.4955 28L21.6667 47.125L51.2703 47.125L47.3604 55L16.6396 55L1 28L16.6396 1L32.5777 1L48.4775 29.125L39.5405 29.125Z" fill="url(#paint1_linear_303_9609)"/>
<path d="M29.4865 21.8125L25.5766 15.0625L16.6396 28L24.4595 42.0625L54.0631 42.0625L63 28L47.3604 1H38.4234L54.0631 28L50.7117 33.625L29.4865 33.625L25.5766 28L29.4865 21.8125Z" stroke="url(#paint2_linear_303_9609)" stroke-linecap="round" stroke-linejoin="round"/>
<path d="M29.4865 21.8125L25.5766 15.0625L16.6396 28L24.4595 42.0625L54.0631 42.0625L63 28L47.3604 1H38.4234L54.0631 28L50.7117 33.625L29.4865 33.625L25.5766 28L29.4865 21.8125Z" stroke="url(#paint3_linear_303_9609)" stroke-linecap="round" stroke-linejoin="round"/>
<path d="M29.4865 21.8125L25.5766 15.0625L16.6396 28L24.4595 42.0625L54.0631 42.0625L63 28L47.3604 1H38.4234L54.0631 28L50.7117 33.625L29.4865 33.625L25.5766 28L29.4865 21.8125Z" stroke="url(#paint4_linear_303_9609)" stroke-linecap="round" stroke-linejoin="round"/>
<path d="M39.5405 29.125L28.3694 10H21.6667L10.4955 28L21.6667 47.125L51.2703 47.125L47.3604 55L16.6396 55L1 28L16.6396 1L32.5777 1L48.4775 29.125L39.5405 29.125Z" stroke="url(#paint5_linear_303_9609)" stroke-linecap="round" stroke-linejoin="round"/>
<path d="M39.5405 29.125L28.3694 10H21.6667L10.4955 28L21.6667 47.125L51.2703 47.125L47.3604 55L16.6396 55L1 28L16.6396 1L32.5777 1L48.4775 29.125L39.5405 29.125Z" stroke="url(#paint6_linear_303_9609)" stroke-linecap="round" stroke-linejoin="round"/>
<path d="M39.5405 29.125L28.3694 10H21.6667L10.4955 28L21.6667 47.125L51.2703 47.125L47.3604 55L16.6396 55L1 28L16.6396 1L32.5777 1L48.4775 29.125L39.5405 29.125Z" stroke="url(#paint7_linear_303_9609)" stroke-linecap="round" stroke-linejoin="round"/>
<defs>
<linearGradient id="paint0_linear_303_9609" x1="34.5135" y1="28" x2="63" y2="28" gradientUnits="userSpaceOnUse">
<stop stop-color="#8951FF"/>
<stop offset="0.504" stop-color="#4B4AFD"/>
<stop offset="1" stop-color="#0E43FB"/>
</linearGradient>
<linearGradient id="paint1_linear_303_9609" x1="1" y1="28" x2="63" y2="28" gradientUnits="userSpaceOnUse">
<stop stop-color="#8951FF"/>
<stop offset="1" stop-color="#0E43FB"/>
</linearGradient>
<linearGradient id="paint2_linear_303_9609" x1="1" y1="28" x2="63" y2="28" gradientUnits="userSpaceOnUse">
<stop stop-color="#717A82"/>
<stop offset="0.2" stop-color="#9FA5AA"/>
<stop offset="0.395" stop-color="#B7BCC0"/>
<stop offset="0.75" stop-color="#C6CACD"/>
<stop offset="1" stop-color="#7F868E"/>
</linearGradient>
<linearGradient id="paint3_linear_303_9609" x1="1" y1="28" x2="63" y2="28" gradientUnits="userSpaceOnUse">
<stop stop-color="#717A82"/>
<stop offset="0.2" stop-color="#9FA5AA"/>
<stop offset="0.395" stop-color="#B7BCC0"/>
<stop offset="0.75" stop-color="#C6CACD"/>
<stop offset="1" stop-color="#7F868E"/>
</linearGradient>
<linearGradient id="paint4_linear_303_9609" x1="1" y1="28" x2="63" y2="28" gradientUnits="userSpaceOnUse">
<stop stop-color="#717A82"/>
<stop offset="0.2" stop-color="#9FA5AA"/>
<stop offset="0.395" stop-color="#B7BCC0"/>
<stop offset="0.75" stop-color="#C6CACD"/>
<stop offset="1" stop-color="#7F868E"/>
</linearGradient>
<linearGradient id="paint5_linear_303_9609" x1="1" y1="28" x2="63" y2="28" gradientUnits="userSpaceOnUse">
<stop stop-color="#717A82"/>
<stop offset="0.2" stop-color="#9FA5AA"/>
<stop offset="0.395" stop-color="#B7BCC0"/>
<stop offset="0.75" stop-color="#C6CACD"/>
<stop offset="1" stop-color="#7F868E"/>
</linearGradient>
<linearGradient id="paint6_linear_303_9609" x1="1" y1="28" x2="63" y2="28" gradientUnits="userSpaceOnUse">
<stop stop-color="#717A82"/>
<stop offset="0.2" stop-color="#9FA5AA"/>
<stop offset="0.395" stop-color="#B7BCC0"/>
<stop offset="0.75" stop-color="#C6CACD"/>
<stop offset="1" stop-color="#7F868E"/>
</linearGradient>
<linearGradient id="paint7_linear_303_9609" x1="1" y1="28" x2="63" y2="28" gradientUnits="userSpaceOnUse">
<stop stop-color="#717A82"/>
<stop offset="0.2" stop-color="#9FA5AA"/>
<stop offset="0.395" stop-color="#B7BCC0"/>
<stop offset="0.75" stop-color="#C6CACD"/>
<stop offset="1" stop-color="#7F868E"/>
</linearGradient>
</defs>
</svg>
