<svg width="1920" height="1080" viewBox="0 0 1920 1080" fill="none" xmlns="http://www.w3.org/2000/svg">
<path d="M1920 -0.000488281H0V1080H1920V-0.000488281Z" fill="#241F3E"/>
<path d="M0 324C85.2 361.2 170.3 398.399 270.6 426.799C370.8 455.199 486.1 474.8 534.6 545.4C583 616.1 564.6 737.9 590.4 835.5C616.1 933.1 686.1 1006.5 756 1080H0V324Z" fill="#0D0A14"/>
<path d="M0 475.199C68.1 504.999 136.3 534.699 216.4 557.499C296.6 580.199 388.9 595.799 427.7 652.299C466.4 708.899 451.7 806.299 472.3 884.399C492.9 962.499 548.8 1021.2 604.8 1080H0V475.199Z" fill="#130E1E"/>
<path d="M0 626.399C51.1 648.699 102.2 671.099 162.3 688.099C222.5 705.099 291.7 716.899 320.7 759.299C349.8 801.699 338.8 874.699 354.2 933.299C369.7 991.799 411.6 1035.9 453.6 1080H0V626.399Z" fill="#191328"/>
<path d="M0 777.599C34.1 792.499 68.1 807.399 108.2 818.699C148.3 830.099 194.4 837.899 213.8 866.199C233.2 894.399 225.8 943.099 236.1 982.199C246.4 1021.2 274.4 1050.6 302.4 1080H0V777.599Z" fill="#201832"/>
<path d="M0 928.8C17 936.2 34.1 943.7 54.1 949.4C74.2 955 97.2 959 106.9 973.1C116.6 987.2 112.9 1011.6 118.1 1031.1C123.2 1050.6 137.2 1065.3 151.2 1080H0V928.8Z" fill="#261D3C"/>
<path d="M1920 756C1834.8 718.8 1749.7 681.6 1649.4 653.2C1549.2 624.8 1433.9 605.2 1385.4 534.6C1337 463.9 1355.4 342.1 1329.6 244.5C1303.9 146.9 1233.9 73.5 1164 0H1920V756Z" fill="#0D0A14"/>
<path d="M1920 604.8C1851.9 575 1783.7 545.3 1703.6 522.5C1623.4 499.8 1531.1 484.2 1492.3 427.7C1453.6 371.1 1468.3 273.7 1447.7 195.6C1427.1 117.5 1371.2 58.8001 1315.2 6.10352e-05H1920V604.8Z" fill="#130E1E"/>
<path d="M1920 453.6C1868.9 431.3 1817.8 408.9 1757.7 391.9C1697.5 374.9 1628.3 363.1 1599.3 320.7C1570.2 278.3 1581.2 205.3 1565.8 146.7C1550.3 88.2001 1508.4 44.1001 1466.4 9.15527e-05H1920V453.6Z" fill="#191328"/>
<path d="M1920 302.4C1885.9 287.5 1851.9 272.6 1811.8 261.3C1771.7 249.9 1725.6 242.1 1706.2 213.8C1686.8 185.6 1694.2 136.9 1683.9 97.7999C1673.6 58.7999 1645.6 29.3999 1617.6 -9.15527e-05H1920V302.4Z" fill="#201832"/>
<path d="M1920 151.2C1903 143.8 1885.9 136.3 1865.9 130.6C1845.8 125 1822.8 121 1813.1 106.9C1803.4 92.8 1807.1 68.4 1801.9 48.9C1796.8 29.4 1782.8 14.7 1768.8 -4.57764e-05H1920V151.2Z" fill="#261D3C"/>
</svg>
