<svg width="126" height="23" viewBox="0 0 126 23" fill="none" xmlns="http://www.w3.org/2000/svg">
<path d="M22.4688 20.9531C22.4688 21.2448 22.4167 21.5156 22.3125 21.7656C22.2083 22.0156 22.0625 22.2344 21.875 22.4219C21.6979 22.599 21.4844 22.7396 21.2344 22.8438C20.9844 22.9479 20.7135 23 20.4219 23H5.76562C5.39062 23 4.98438 22.9583 4.54688 22.875C4.11979 22.7812 3.69271 22.6406 3.26562 22.4531C2.84896 22.2656 2.44792 22.026 2.0625 21.7344C1.67708 21.4323 1.33333 21.0729 1.03125 20.6562C0.739583 20.2292 0.505208 19.7396 0.328125 19.1875C0.151042 18.625 0.0625 17.9948 0.0625 17.2969V6.29688C0.0625 5.92188 0.104167 5.52083 0.1875 5.09375C0.28125 4.65625 0.421875 4.22917 0.609375 3.8125C0.796875 3.38542 1.04167 2.97917 1.34375 2.59375C1.64583 2.20833 2.00521 1.86979 2.42188 1.57812C2.84896 1.27604 3.33854 1.03646 3.89062 0.859375C4.44271 0.682292 5.06771 0.59375 5.76562 0.59375H22.2812V4.65625H5.76562C5.23438 4.65625 4.82812 4.79688 4.54688 5.07812C4.26562 5.35938 4.125 5.77604 4.125 6.32812V17.2969C4.125 17.8177 4.26562 18.224 4.54688 18.5156C4.83854 18.7969 5.24479 18.9375 5.76562 18.9375H18.4062V13.8438H7.59375V9.75H20.4219C20.7135 9.75 20.9844 9.80729 21.2344 9.92188C21.4844 10.026 21.6979 10.1719 21.875 10.3594C22.0625 10.5469 22.2083 10.7656 22.3125 11.0156C22.4167 11.2552 22.4688 11.5156 22.4688 11.7969V20.9531Z" fill="black"/>
<path d="M30.7969 9.75H45.0625V0.59375H49.125V23H45.0625V13.8438H30.7969V23H26.7344V0.59375H30.7969V9.75Z" fill="black"/>
<path d="M75.875 23H71.8125V17.5H57.5312V23H53.4688V11.7969C53.4688 10.1615 53.75 8.65625 54.3125 7.28125C54.875 5.90625 55.6562 4.72396 56.6562 3.73438C57.6562 2.74479 58.8385 1.97396 60.2031 1.42188C61.5677 0.869792 63.0573 0.59375 64.6719 0.59375H73.8281C74.1094 0.59375 74.375 0.645833 74.625 0.75C74.875 0.854167 75.0938 1 75.2812 1.1875C75.4688 1.375 75.6146 1.59375 75.7188 1.84375C75.8229 2.09375 75.875 2.35938 75.875 2.64062V23ZM57.5312 13.4375H71.8125V4.65625H64.6719C64.5469 4.65625 64.2812 4.67708 63.875 4.71875C63.4792 4.75 63.0156 4.83854 62.4844 4.98438C61.9635 5.13021 61.4115 5.35417 60.8281 5.65625C60.2448 5.95833 59.7083 6.375 59.2188 6.90625C58.7292 7.4375 58.3229 8.10417 58 8.90625C57.6875 9.69792 57.5312 10.6615 57.5312 11.7969V13.4375Z" fill="black"/>
<path d="M102.141 16.4062C102.141 17.2083 102.036 17.9323 101.828 18.5781C101.63 19.2135 101.365 19.776 101.031 20.2656C100.698 20.7552 100.307 21.1719 99.8594 21.5156C99.4115 21.8594 98.9479 22.1406 98.4688 22.3594C97.9896 22.5781 97.5 22.7396 97 22.8438C96.5104 22.9479 96.0469 23 95.6094 23H79.9375V18.9375H95.6094C96.3906 18.9375 96.9948 18.7083 97.4219 18.25C97.8594 17.7917 98.0781 17.1771 98.0781 16.4062C98.0781 16.0312 98.0208 15.6875 97.9062 15.375C97.7917 15.0625 97.625 14.7917 97.4062 14.5625C97.1979 14.3333 96.9375 14.1562 96.625 14.0312C96.3229 13.9062 95.9844 13.8438 95.6094 13.8438H86.2656C85.6094 13.8438 84.901 13.7292 84.1406 13.5C83.3802 13.2604 82.6719 12.8802 82.0156 12.3594C81.3698 11.8385 80.8281 11.1562 80.3906 10.3125C79.9635 9.46875 79.75 8.4375 79.75 7.21875C79.75 6 79.9635 4.97396 80.3906 4.14062C80.8281 3.29688 81.3698 2.61458 82.0156 2.09375C82.6719 1.5625 83.3802 1.18229 84.1406 0.953125C84.901 0.713542 85.6094 0.59375 86.2656 0.59375H100.094V4.65625H86.2656C85.4948 4.65625 84.8906 4.89062 84.4531 5.35938C84.026 5.82812 83.8125 6.44792 83.8125 7.21875C83.8125 8 84.026 8.61979 84.4531 9.07812C84.8906 9.52604 85.4948 9.75 86.2656 9.75H95.6406C96.0781 9.76042 96.5417 9.82292 97.0312 9.9375C97.5208 10.0417 98.0052 10.2083 98.4844 10.4375C98.974 10.6667 99.4375 10.9583 99.875 11.3125C100.312 11.6562 100.698 12.0729 101.031 12.5625C101.375 13.0521 101.646 13.6146 101.844 14.25C102.042 14.8854 102.141 15.6042 102.141 16.4062Z" fill="black"/>
<path d="M125.516 4.65625H116.562V23H112.5V4.65625H103.531V0.59375H125.516V4.65625Z" fill="black"/>
</svg>
